<mxfile host="app.diagrams.net" modified="2024-04-12T13:15:29.199Z" agent="Mozilla/5.0 (Macintosh; Intel Mac OS X 10_15_7) AppleWebKit/605.1.15 (KHTML, like Gecko) Version/17.3.1 Safari/605.1.15" etag="XPJXap-5CyhcAUu99oyi" version="24.2.3" type="device">
  <diagram name="Page-1" id="KoU6NMdeNbAMMxHYyKNO">
    <mxGraphModel dx="1122" dy="642" grid="1" gridSize="10" guides="1" tooltips="1" connect="1" arrows="1" fold="1" page="1" pageScale="1" pageWidth="1169" pageHeight="827" math="0" shadow="0">
      <root>
        <mxCell id="0" />
        <mxCell id="1" parent="0" />
        <mxCell id="W8fF3aFd5IMXkh9MD7HP-8" value="Public subnet" style="points=[[0,0],[0.25,0],[0.5,0],[0.75,0],[1,0],[1,0.25],[1,0.5],[1,0.75],[1,1],[0.75,1],[0.5,1],[0.25,1],[0,1],[0,0.75],[0,0.5],[0,0.25]];outlineConnect=0;gradientColor=none;html=1;whiteSpace=wrap;fontSize=12;fontStyle=0;container=1;pointerEvents=0;collapsible=0;recursiveResize=0;shape=mxgraph.aws4.group;grIcon=mxgraph.aws4.group_security_group;grStroke=0;strokeColor=#7AA116;fillColor=#F2F6E8;verticalAlign=top;align=left;spacingLeft=30;fontColor=#248814;dashed=0;" vertex="1" parent="1">
          <mxGeometry x="240" y="360" width="410" height="160" as="geometry" />
        </mxCell>
        <mxCell id="W8fF3aFd5IMXkh9MD7HP-1" value="EC2" style="points=[[0,0],[0.25,0],[0.5,0],[0.75,0],[1,0],[1,0.25],[1,0.5],[1,0.75],[1,1],[0.75,1],[0.5,1],[0.25,1],[0,1],[0,0.75],[0,0.5],[0,0.25]];outlineConnect=0;gradientColor=none;html=1;whiteSpace=wrap;fontSize=12;fontStyle=0;container=1;pointerEvents=0;collapsible=0;recursiveResize=0;shape=mxgraph.aws4.group;grIcon=mxgraph.aws4.group_ec2_instance_contents;strokeColor=#D86613;fillColor=none;verticalAlign=top;align=left;spacingLeft=30;fontColor=#D86613;dashed=0;" vertex="1" parent="W8fF3aFd5IMXkh9MD7HP-8">
          <mxGeometry x="20" y="50" width="78" height="78" as="geometry" />
        </mxCell>
        <mxCell id="W8fF3aFd5IMXkh9MD7HP-2" value="" style="image;sketch=0;aspect=fixed;html=1;points=[];align=center;fontSize=12;image=img/lib/mscae/Docker.svg;" vertex="1" parent="W8fF3aFd5IMXkh9MD7HP-1">
          <mxGeometry x="14" y="30" width="50" height="41" as="geometry" />
        </mxCell>
        <mxCell id="W8fF3aFd5IMXkh9MD7HP-20" style="edgeStyle=orthogonalEdgeStyle;rounded=0;orthogonalLoop=1;jettySize=auto;html=1;" edge="1" parent="W8fF3aFd5IMXkh9MD7HP-8">
          <mxGeometry relative="1" as="geometry">
            <mxPoint x="238" y="78.99999999999989" as="sourcePoint" />
            <mxPoint x="308" y="78.99999999999989" as="targetPoint" />
            <Array as="points">
              <mxPoint x="280" y="79" />
              <mxPoint x="280" y="79" />
            </Array>
          </mxGeometry>
        </mxCell>
        <mxCell id="W8fF3aFd5IMXkh9MD7HP-5" value="ECS" style="sketch=0;points=[[0,0,0],[0.25,0,0],[0.5,0,0],[0.75,0,0],[1,0,0],[0,1,0],[0.25,1,0],[0.5,1,0],[0.75,1,0],[1,1,0],[0,0.25,0],[0,0.5,0],[0,0.75,0],[1,0.25,0],[1,0.5,0],[1,0.75,0]];outlineConnect=0;fontColor=#232F3E;fillColor=#ED7100;strokeColor=#ffffff;dashed=0;verticalLabelPosition=bottom;verticalAlign=top;align=center;html=1;fontSize=12;fontStyle=0;aspect=fixed;shape=mxgraph.aws4.resourceIcon;resIcon=mxgraph.aws4.ecs;" vertex="1" parent="W8fF3aFd5IMXkh9MD7HP-8">
          <mxGeometry x="160" y="47" width="78" height="78" as="geometry" />
        </mxCell>
        <mxCell id="W8fF3aFd5IMXkh9MD7HP-6" value="Fargate" style="sketch=0;points=[[0,0,0],[0.25,0,0],[0.5,0,0],[0.75,0,0],[1,0,0],[0,1,0],[0.25,1,0],[0.5,1,0],[0.75,1,0],[1,1,0],[0,0.25,0],[0,0.5,0],[0,0.75,0],[1,0.25,0],[1,0.5,0],[1,0.75,0]];outlineConnect=0;fontColor=#232F3E;fillColor=#ED7100;strokeColor=#ffffff;dashed=0;verticalLabelPosition=bottom;verticalAlign=top;align=center;html=1;fontSize=12;fontStyle=0;aspect=fixed;shape=mxgraph.aws4.resourceIcon;resIcon=mxgraph.aws4.fargate;" vertex="1" parent="W8fF3aFd5IMXkh9MD7HP-8">
          <mxGeometry x="308" y="47" width="78" height="78" as="geometry" />
        </mxCell>
        <mxCell id="W8fF3aFd5IMXkh9MD7HP-10" value="VPC" style="points=[[0,0],[0.25,0],[0.5,0],[0.75,0],[1,0],[1,0.25],[1,0.5],[1,0.75],[1,1],[0.75,1],[0.5,1],[0.25,1],[0,1],[0,0.75],[0,0.5],[0,0.25]];outlineConnect=0;gradientColor=none;html=1;whiteSpace=wrap;fontSize=12;fontStyle=0;container=1;pointerEvents=0;collapsible=0;recursiveResize=0;shape=mxgraph.aws4.group;grIcon=mxgraph.aws4.group_vpc2;strokeColor=#8C4FFF;fillColor=none;verticalAlign=top;align=left;spacingLeft=30;fontColor=#AAB7B8;dashed=0;" vertex="1" parent="1">
          <mxGeometry x="200" y="320" width="560" height="320" as="geometry" />
        </mxCell>
        <mxCell id="W8fF3aFd5IMXkh9MD7HP-7" value="ALB" style="sketch=0;outlineConnect=0;fontColor=#232F3E;gradientColor=none;fillColor=#8C4FFF;strokeColor=none;dashed=0;verticalLabelPosition=bottom;verticalAlign=top;align=center;html=1;fontSize=12;fontStyle=0;aspect=fixed;pointerEvents=1;shape=mxgraph.aws4.application_load_balancer;" vertex="1" parent="W8fF3aFd5IMXkh9MD7HP-10">
          <mxGeometry x="520" y="81" width="78" height="78" as="geometry" />
        </mxCell>
        <mxCell id="W8fF3aFd5IMXkh9MD7HP-3" value="ECR" style="sketch=0;points=[[0,0,0],[0.25,0,0],[0.5,0,0],[0.75,0,0],[1,0,0],[0,1,0],[0.25,1,0],[0.5,1,0],[0.75,1,0],[1,1,0],[0,0.25,0],[0,0.5,0],[0,0.75,0],[1,0.25,0],[1,0.5,0],[1,0.75,0]];outlineConnect=0;fontColor=#232F3E;fillColor=#ED7100;strokeColor=#ffffff;dashed=0;verticalLabelPosition=bottom;verticalAlign=top;align=center;html=1;fontSize=12;fontStyle=0;aspect=fixed;shape=mxgraph.aws4.resourceIcon;resIcon=mxgraph.aws4.ecr;" vertex="1" parent="W8fF3aFd5IMXkh9MD7HP-10">
          <mxGeometry x="460" y="210" width="78" height="78" as="geometry" />
        </mxCell>
        <mxCell id="W8fF3aFd5IMXkh9MD7HP-11" value="AWS Cloud" style="points=[[0,0],[0.25,0],[0.5,0],[0.75,0],[1,0],[1,0.25],[1,0.5],[1,0.75],[1,1],[0.75,1],[0.5,1],[0.25,1],[0,1],[0,0.75],[0,0.5],[0,0.25]];outlineConnect=0;gradientColor=none;html=1;whiteSpace=wrap;fontSize=12;fontStyle=0;container=1;pointerEvents=0;collapsible=0;recursiveResize=0;shape=mxgraph.aws4.group;grIcon=mxgraph.aws4.group_aws_cloud_alt;strokeColor=#232F3E;fillColor=none;verticalAlign=top;align=left;spacingLeft=30;fontColor=#232F3E;dashed=0;" vertex="1" parent="1">
          <mxGeometry x="160" y="280" width="650" height="410" as="geometry" />
        </mxCell>
        <mxCell id="W8fF3aFd5IMXkh9MD7HP-12" value="IGW" style="sketch=0;outlineConnect=0;fontColor=#232F3E;gradientColor=none;fillColor=#8C4FFF;strokeColor=none;dashed=0;verticalLabelPosition=bottom;verticalAlign=top;align=center;html=1;fontSize=12;fontStyle=0;aspect=fixed;pointerEvents=1;shape=mxgraph.aws4.internet_gateway;" vertex="1" parent="W8fF3aFd5IMXkh9MD7HP-11">
          <mxGeometry x="230" y="306" width="78" height="78" as="geometry" />
        </mxCell>
        <mxCell id="W8fF3aFd5IMXkh9MD7HP-13" value="Internet" style="image;aspect=fixed;perimeter=ellipsePerimeter;html=1;align=center;shadow=0;dashed=0;spacingTop=3;image=img/lib/active_directory/internet_globe.svg;" vertex="1" parent="1">
          <mxGeometry x="880" y="520" width="80" height="80" as="geometry" />
        </mxCell>
        <mxCell id="W8fF3aFd5IMXkh9MD7HP-14" style="edgeStyle=orthogonalEdgeStyle;rounded=0;orthogonalLoop=1;jettySize=auto;html=1;entryX=0.5;entryY=0;entryDx=0;entryDy=0;" edge="1" parent="1" source="W8fF3aFd5IMXkh9MD7HP-7" target="W8fF3aFd5IMXkh9MD7HP-13">
          <mxGeometry relative="1" as="geometry" />
        </mxCell>
        <mxCell id="W8fF3aFd5IMXkh9MD7HP-15" style="edgeStyle=orthogonalEdgeStyle;rounded=0;orthogonalLoop=1;jettySize=auto;html=1;entryX=0.5;entryY=1;entryDx=0;entryDy=0;" edge="1" parent="1" source="W8fF3aFd5IMXkh9MD7HP-12" target="W8fF3aFd5IMXkh9MD7HP-13">
          <mxGeometry relative="1" as="geometry">
            <mxPoint x="850" y="660" as="targetPoint" />
            <Array as="points">
              <mxPoint x="429" y="730" />
              <mxPoint x="920" y="730" />
            </Array>
          </mxGeometry>
        </mxCell>
        <mxCell id="W8fF3aFd5IMXkh9MD7HP-17" style="edgeStyle=orthogonalEdgeStyle;rounded=0;orthogonalLoop=1;jettySize=auto;html=1;" edge="1" parent="1" source="W8fF3aFd5IMXkh9MD7HP-1" target="W8fF3aFd5IMXkh9MD7HP-12">
          <mxGeometry relative="1" as="geometry">
            <Array as="points">
              <mxPoint x="299" y="560" />
              <mxPoint x="429" y="560" />
            </Array>
          </mxGeometry>
        </mxCell>
        <mxCell id="W8fF3aFd5IMXkh9MD7HP-18" style="edgeStyle=orthogonalEdgeStyle;rounded=0;orthogonalLoop=1;jettySize=auto;html=1;entryX=0;entryY=0.5;entryDx=0;entryDy=0;entryPerimeter=0;" edge="1" parent="1" source="W8fF3aFd5IMXkh9MD7HP-1" target="W8fF3aFd5IMXkh9MD7HP-3">
          <mxGeometry relative="1" as="geometry">
            <Array as="points">
              <mxPoint x="310" y="540" />
              <mxPoint x="499" y="540" />
              <mxPoint x="499" y="569" />
            </Array>
          </mxGeometry>
        </mxCell>
        <mxCell id="W8fF3aFd5IMXkh9MD7HP-21" style="edgeStyle=orthogonalEdgeStyle;rounded=0;orthogonalLoop=1;jettySize=auto;html=1;entryX=1;entryY=0.5;entryDx=0;entryDy=0;entryPerimeter=0;" edge="1" parent="1" source="W8fF3aFd5IMXkh9MD7HP-3" target="W8fF3aFd5IMXkh9MD7HP-5">
          <mxGeometry relative="1" as="geometry">
            <Array as="points">
              <mxPoint x="530" y="550" />
              <mxPoint x="530" y="446" />
            </Array>
          </mxGeometry>
        </mxCell>
        <mxCell id="W8fF3aFd5IMXkh9MD7HP-22" style="edgeStyle=orthogonalEdgeStyle;rounded=0;orthogonalLoop=1;jettySize=auto;html=1;" edge="1" parent="1" source="W8fF3aFd5IMXkh9MD7HP-6" target="W8fF3aFd5IMXkh9MD7HP-7">
          <mxGeometry relative="1" as="geometry">
            <Array as="points">
              <mxPoint x="700" y="446" />
              <mxPoint x="700" y="446" />
            </Array>
          </mxGeometry>
        </mxCell>
      </root>
    </mxGraphModel>
  </diagram>
</mxfile>
